<svg xmlns="http://www.w3.org/2000/svg" xmlns:xlink="http://www.w3.org/1999/xlink" viewBox="0 0 194.82 60.21"><defs><style>.cls-1{fill:none;}.cls-2{clip-path:url(#clip-path);}.cls-3{fill:#fff;}</style><clipPath id="clip-path"><rect class="cls-1" width="195.67" height="60.21"/></clipPath></defs><title>qsc-logo-white</title><g id="图层_2" data-name="图层 2"><g id="图层_2-2" data-name="图层 2"><g class="cls-2"><path class="cls-3" d="M60.21,30.11a29.88,29.88,0,0,1-4.44,15.73,8.29,8.29,0,0,0-2.13-.28,8.09,8.09,0,0,0-8.09,8.08,7.88,7.88,0,0,0,.29,2.13A30.1,30.1,0,1,1,60.21,30.11Z"/><path class="cls-3" d="M127.94,30.11A30.09,30.09,0,0,1,77.48,52.27,8.08,8.08,0,0,0,72,42.53a8.32,8.32,0,0,0-1.75-.34,29.67,29.67,0,0,1-2.54-12.08A30.1,30.1,0,0,1,118.2,7.94a8.05,8.05,0,0,0,5.45,9.74,8.32,8.32,0,0,0,1.75.34A29.75,29.75,0,0,1,127.94,30.11Z"/><path class="cls-3" d="M194.82,37.18a30.1,30.1,0,1,1,0-14.16,8.1,8.1,0,0,0,0,14.16Z"/></g></g></g></svg>