<svg xmlns="http://www.w3.org/2000/svg" viewBox="0 0 1349.31 778.79"><defs><style>.cls-1{opacity:0.7;}.cls-2{fill:#fff;}</style></defs><title>stars-translucent</title><g id="图层_2" data-name="图层 2"><g id="图层_2-2" data-name="图层 2"><g class="cls-1"><circle class="cls-2" cx="61.17" cy="20.94" r="5.43"/><circle class="cls-2" cx="528.14" cy="233.49" r="5.43"/><circle class="cls-2" cx="272.16" cy="58.95" r="5.43"/><circle class="cls-2" cx="541.33" cy="26.37" r="3.1"/><circle class="cls-2" cx="73.58" cy="181.51" r="3.1"/><polygon class="cls-2" points="27.04 246.92 25.63 246.92 25.63 245.51 25.35 245.51 25.35 246.92 23.94 246.92 23.94 247.2 25.35 247.2 25.35 248.61 25.63 248.61 25.63 247.2 27.04 247.2 27.04 246.92"/><polygon class="cls-2" points="597.96 108.85 596.54 108.85 596.54 107.44 596.27 107.44 596.27 108.85 594.85 108.85 594.85 109.12 596.27 109.12 596.27 110.54 596.54 110.54 596.54 109.12 597.96 109.12 597.96 108.85"/><polygon class="cls-2" points="345.85 170.9 344.44 170.9 344.44 169.49 344.17 169.49 344.17 170.9 342.75 170.9 342.75 171.18 344.17 171.18 344.17 172.59 344.44 172.59 344.44 171.18 345.85 171.18 345.85 170.9"/><polygon class="cls-2" points="563.83 178.66 562.41 178.66 562.41 177.25 562.14 177.25 562.14 178.66 560.72 178.66 560.72 178.94 562.14 178.94 562.14 180.35 562.41 180.35 562.41 178.94 563.83 178.94 563.83 178.66"/><polygon class="cls-2" points="300.86 212.02 299.45 212.02 299.45 210.6 299.17 210.6 299.17 212.02 297.76 212.02 297.76 212.29 299.17 212.29 299.17 213.71 299.45 213.71 299.45 212.29 300.86 212.29 300.86 212.02"/><polygon class="cls-2" points="400.15 213.57 398.74 213.57 398.74 212.15 398.46 212.15 398.46 213.57 397.05 213.57 397.05 213.84 398.46 213.84 398.46 215.26 398.74 215.26 398.74 213.84 400.15 213.84 400.15 213.57"/><polygon class="cls-2" points="28.59 81.7 27.18 81.7 27.18 80.28 26.9 80.28 26.9 81.7 25.49 81.7 25.49 81.97 26.9 81.97 26.9 83.39 27.18 83.39 27.18 81.97 28.59 81.97 28.59 81.7"/><polygon class="cls-2" points="327.24 69.29 325.82 69.29 325.82 67.87 325.55 67.87 325.55 69.29 324.13 69.29 324.13 69.56 325.55 69.56 325.55 70.98 325.82 70.98 325.82 69.56 327.24 69.56 327.24 69.29"/><circle class="cls-2" cx="385.42" cy="3.1" r="3.1"/><ellipse class="cls-2" cx="726.8" cy="80.13" rx="6.22" ry="6.39" transform="translate(-4.38 85.71) rotate(-6.73)"/><ellipse class="cls-2" cx="1287.07" cy="265.77" rx="6.22" ry="6.39" transform="translate(-22.27 152.63) rotate(-6.73)"/><ellipse class="cls-2" cx="971.95" cy="96.22" rx="6.22" ry="6.39" transform="translate(-4.58 114.54) rotate(-6.73)"/><ellipse class="cls-2" cx="1273.52" cy="22.06" rx="3.55" ry="3.65" transform="translate(6.19 149.36) rotate(-6.73)"/><ellipse class="cls-2" cx="763.04" cy="266.04" rx="3.55" ry="3.65" transform="translate(-25.91 91.23) rotate(-6.73)"/><polygon class="cls-2" points="719.13 348.69 717.53 348.88 717.33 347.23 717.02 347.26 717.21 348.92 715.61 349.11 715.64 349.43 717.25 349.24 717.45 350.89 717.76 350.85 717.57 349.2 719.17 349.01 719.13 348.69"/><polygon class="cls-2" points="1349.28 110.81 1347.67 111 1347.47 109.34 1347.16 109.38 1347.36 111.03 1345.75 111.22 1345.79 111.54 1347.39 111.35 1347.59 113 1347.9 112.97 1347.71 111.32 1349.31 111.13 1349.28 110.81"/><polygon class="cls-2" points="1071.17 217.12 1069.56 217.31 1069.37 215.66 1069.05 215.69 1069.25 217.34 1067.64 217.53 1067.68 217.86 1069.29 217.67 1069.48 219.32 1069.8 219.28 1069.6 217.63 1071.21 217.44 1071.17 217.12"/><polygon class="cls-2" points="1320.09 196.94 1318.48 197.13 1318.29 195.48 1317.97 195.51 1318.17 197.16 1316.56 197.35 1316.6 197.68 1318.2 197.49 1318.4 199.14 1318.71 199.1 1318.52 197.45 1320.13 197.26 1320.09 196.94"/><polygon class="cls-2" points="1025.68 271.18 1024.07 271.37 1023.88 269.72 1023.56 269.75 1023.76 271.41 1022.15 271.6 1022.19 271.92 1023.79 271.73 1023.99 273.38 1024.3 273.34 1024.11 271.69 1025.72 271.5 1025.68 271.18"/><polygon class="cls-2" points="1138.79 259.67 1137.18 259.86 1136.99 258.21 1136.68 258.25 1136.87 259.9 1135.26 260.09 1135.3 260.41 1136.91 260.22 1137.1 261.87 1137.42 261.83 1137.22 260.18 1138.83 260 1138.79 259.67"/><polygon class="cls-2" points="698.13 155.47 696.52 155.66 696.33 154.01 696.01 154.04 696.21 155.69 694.6 155.88 694.64 156.21 696.24 156.02 696.44 157.67 696.75 157.63 696.56 155.98 698.16 155.79 698.13 155.47"/><polygon class="cls-2" points="1036 100.91 1034.39 101.1 1034.19 99.45 1033.88 99.48 1034.08 101.13 1032.47 101.32 1032.51 101.65 1034.11 101.46 1034.31 103.11 1034.62 103.07 1034.43 101.42 1036.04 101.23 1036 100.91"/><ellipse class="cls-2" cx="1093.03" cy="15.79" rx="3.55" ry="3.65" transform="translate(5.68 128.17) rotate(-6.73)"/><circle class="cls-2" cx="1283.75" cy="618.58" r="5.43"/><circle class="cls-2" cx="800.08" cy="447.41" r="5.43"/><circle class="cls-2" cx="1070.26" cy="599.04" r="5.43"/><circle class="cls-2" cx="804.94" cy="654.88" r="3.1"/><circle class="cls-2" cx="1257.44" cy="459.69" r="3.1"/><polygon class="cls-2" points="1298.12 390.49 1299.53 390.36 1299.65 391.77 1299.93 391.75 1299.8 390.34 1301.21 390.22 1301.19 389.94 1299.78 390.06 1299.66 388.66 1299.38 388.68 1299.51 390.09 1298.1 390.21 1298.12 390.49"/><polygon class="cls-2" points="741.36 577.64 742.77 577.51 742.89 578.92 743.16 578.9 743.04 577.49 744.45 577.37 744.43 577.09 743.02 577.22 742.89 575.81 742.62 575.83 742.74 577.24 741.33 577.36 741.36 577.64"/><polygon class="cls-2" points="987.12 493.91 988.52 493.79 988.65 495.2 988.92 495.18 988.8 493.77 990.21 493.64 990.18 493.37 988.78 493.49 988.65 492.08 988.38 492.11 988.5 493.52 987.09 493.64 987.12 493.91"/><polygon class="cls-2" points="769.29 505.12 770.7 505 770.83 506.41 771.1 506.38 770.98 504.98 772.39 504.85 772.36 504.58 770.95 504.7 770.83 503.29 770.56 503.32 770.68 504.73 769.27 504.85 769.29 505.12"/><polygon class="cls-2" points="1028.37 449.05 1029.77 448.93 1029.9 450.33 1030.17 450.31 1030.05 448.9 1031.46 448.78 1031.43 448.5 1030.03 448.63 1029.9 447.22 1029.63 447.24 1029.75 448.65 1028.34 448.77 1028.37 449.05"/><polygon class="cls-2" points="929.32 456.13 930.73 456.01 930.85 457.41 931.12 457.39 931 455.98 932.41 455.86 932.38 455.58 930.98 455.71 930.85 454.3 930.58 454.32 930.7 455.73 929.29 455.85 929.32 456.13"/><polygon class="cls-2" points="1310.93 555.22 1312.34 555.1 1312.46 556.51 1312.73 556.48 1312.61 555.07 1314.02 554.95 1314 554.68 1312.59 554.8 1312.46 553.39 1312.19 553.41 1312.31 554.82 1310.9 554.95 1310.93 555.22"/><polygon class="cls-2" points="1014.49 593.53 1015.9 593.41 1016.02 594.82 1016.3 594.79 1016.17 593.38 1017.58 593.26 1017.56 592.99 1016.15 593.11 1016.03 591.7 1015.75 591.72 1015.88 593.13 1014.47 593.25 1014.49 593.53"/><circle class="cls-2" cx="962.28" cy="664.52" r="3.1"/><circle class="cls-2" cx="166.73" cy="651.63" r="5.43"/><polygon class="cls-2" points="62.49 749.31 63.84 749.74 63.41 751.09 63.67 751.17 64.1 749.82 65.45 750.25 65.53 749.99 64.18 749.56 64.61 748.21 64.35 748.13 63.92 749.48 62.57 749.05 62.49 749.31"/><polygon class="cls-2" points="321.55 766.42 322.9 766.85 322.47 768.19 322.74 768.27 323.16 766.93 324.51 767.36 324.59 767.09 323.25 766.66 323.67 765.32 323.41 765.23 322.98 766.58 321.64 766.15 321.55 766.42"/><polygon class="cls-2" points="116.14 693.09 117.48 693.52 117.06 694.87 117.32 694.95 117.75 693.61 119.09 694.03 119.18 693.77 117.83 693.34 118.26 691.99 118 691.91 117.57 693.26 116.22 692.83 116.14 693.09"/><polygon class="cls-2" points="376.87 740.84 378.22 741.27 377.79 742.61 378.05 742.7 378.48 741.35 379.83 741.78 379.91 741.51 378.56 741.09 378.99 739.74 378.73 739.66 378.3 741 376.95 740.58 376.87 740.84"/><polygon class="cls-2" points="282.7 709.33 284.05 709.76 283.62 711.1 283.88 711.19 284.31 709.84 285.66 710.27 285.74 710 284.39 709.58 284.82 708.23 284.56 708.14 284.13 709.49 282.79 709.07 282.7 709.33"/><circle class="cls-2" cx="465.76" cy="637.72" r="5.43"/><circle class="cls-2" cx="69.05" cy="312.36" r="5.43"/><circle class="cls-2" cx="271.61" cy="546.79" r="5.43"/><circle class="cls-2" cx="3.1" cy="509.14" r="3.1"/><circle class="cls-2" cx="495.01" cy="479.35" r="3.1"/><polygon class="cls-2" points="556.79 428.09 558.15 428.45 557.79 429.81 558.06 429.89 558.42 428.52 559.79 428.88 559.86 428.62 558.49 428.25 558.86 426.89 558.59 426.82 558.23 428.18 556.86 427.82 556.79 428.09"/><polygon class="cls-2" points="229.15 419.67 230.51 420.03 230.15 421.39 230.41 421.47 230.78 420.1 232.14 420.46 232.22 420.2 230.85 419.83 231.21 418.47 230.94 418.4 230.58 419.76 229.22 419.4 229.15 419.67"/><polygon class="cls-2" points="20.48 356.18 21.84 356.55 21.48 357.91 21.75 357.98 22.11 356.62 23.48 356.98 23.55 356.71 22.18 356.35 22.55 354.98 22.28 354.91 21.91 356.28 20.55 355.92 20.48 356.18"/><polygon class="cls-2" points="283.19 391.49 284.55 391.85 284.19 393.22 284.46 393.29 284.82 391.92 286.19 392.29 286.26 392.02 284.89 391.66 285.25 390.29 284.99 390.22 284.62 391.59 283.26 391.22 283.19 391.49"/><polygon class="cls-2" points="187.63 364.49 188.99 364.85 188.63 366.22 188.9 366.29 189.26 364.92 190.63 365.28 190.7 365.02 189.33 364.65 189.69 363.29 189.43 363.22 189.06 364.58 187.7 364.22 187.63 364.49"/><polygon class="cls-2" points="512.85 587.37 514.22 587.73 513.85 589.1 514.12 589.17 514.48 587.8 515.85 588.17 515.92 587.9 514.55 587.54 514.92 586.17 514.65 586.1 514.29 587.47 512.92 587.1 512.85 587.37"/><polygon class="cls-2" points="221.04 522.66 222.4 523.02 222.04 524.38 222.31 524.46 222.67 523.09 224.03 523.45 224.11 523.19 222.74 522.82 223.1 521.46 222.84 521.39 222.47 522.75 221.11 522.39 221.04 522.66"/><circle class="cls-2" cx="147.81" cy="571.68" r="3.1"/><circle class="cls-2" cx="1255.6" cy="768.43" r="4.14"/><circle class="cls-2" cx="1095.59" cy="735.85" r="4.14"/><circle class="cls-2" cx="890.07" cy="756.02" r="2.36"/><circle class="cls-2" cx="1248.92" cy="645.95" r="2.36"/><polygon class="cls-2" points="1281.46 722.73 1282.53 722.75 1282.51 723.83 1282.72 723.83 1282.74 722.76 1283.82 722.78 1283.83 722.57 1282.75 722.55 1282.77 721.47 1282.56 721.47 1282.54 722.54 1281.46 722.52 1281.46 722.73"/><polygon class="cls-2" points="1053.83 727.03 1054.91 727.06 1054.89 728.13 1055.1 728.14 1055.12 727.06 1056.2 727.09 1056.2 726.88 1055.13 726.85 1055.15 725.77 1054.94 725.77 1054.91 726.85 1053.84 726.82 1053.83 727.03"/><circle class="cls-2" cx="1008.39" cy="776.43" r="2.36"/></g></g></g></svg>